<?xml version="1.0" encoding="UTF-8"?>
<svg width="805px" height="690px" viewBox="0 0 805 690" version="1.1" xmlns="http://www.w3.org/2000/svg" xmlns:xlink="http://www.w3.org/1999/xlink">
    <title>Group 17</title>
    <g id="Page-1" stroke="none" stroke-width="1" fill="none" fill-rule="evenodd">
        <g id="Artboard" transform="translate(-242.000000, -192.000000)" fill="#FEFEFE">
            <g id="Group-17" transform="translate(242.149798, 192.000000)">
                <path d="M803.831628,76.0035656 L748.16836,72.1317275 C742.690717,129.09027 733.981879,246.048315 730.333846,439.824857 C758.410267,259.462667 803.831628,76.0035656 803.831628,76.0035656" id="Fill-1"></path>
                <path d="M3.21832551,632.329344 C2.62524049,632.8413 2.02656032,633.356053 1.45865344,633.845628 C62.6695036,637.023668 236.815491,646.851534 400.677609,658.777579 C299.111799,649.982016 169.463973,641.208834 6.43553198,632.737789 C5.23817166,632.673445 4.19467773,632.522377 3.21832551,632.329344" id="Fill-3"></path>
                <path d="M709.238763,688.767259 C710.092022,688.918328 710.990043,689.066599 711.809731,689.217668 C711.641877,655.548902 711.622294,623.365647 711.720209,592.57838 C708.981387,628.023603 707.935095,660.732801 709.238763,688.767259" id="Fill-5"></path>
                <path d="M442.474996,415.692451 L420.586802,415.692451 L420.586802,524.01999 L442.474996,524.01999 C471.916632,524.01999 486.450012,508.734063 486.450012,467.970658 C486.450012,427.39469 471.916632,415.692451 442.474996,415.692451" id="Fill-7"></path>
                <polygon id="Fill-9" points="226.40657 268.101566 224.330772 259.60814 222.257772 268.101566 203.950468 321.319756 244.713873 321.319756"></polygon>
                <path d="M128.66364,279.237296 C128.66364,262.253244 116.961402,256.588163 99.977349,256.588163 L85.8244381,256.588163 L85.8244381,304.337102 L102.618256,304.337102 C109.60379,304.337102 115.640948,304.146867 121.115794,299.6176 C126.397608,295.27577 128.66364,289.993956 128.66364,279.237296" id="Fill-11"></path>
                <path d="M524.369686,537.796628 L524.369686,526.472061 L534.371002,524.776733 C539.090504,524.018591 539.843051,522.323263 539.843051,517.603761 L539.843051,421.168696 C539.843051,416.449194 539.090504,414.183162 534.371002,413.618053 L524.369686,412.485036 L524.369686,401.918611 L621.372658,401.918611 L620.242439,434.376028 L608.159731,434.376028 L607.029512,421.168696 C606.65184,416.449194 604.388605,415.69385 599.859338,415.69385 L556.074557,415.69385 L556.074557,460.043741 L600.23701,460.043741 L600.23701,473.821777 L556.074557,473.821777 L556.074557,524.018591 L600.046775,524.018591 C604.576043,524.018591 606.839277,523.266045 607.219747,518.546543 L608.352763,504.393632 L620.994986,504.393632 L622.125204,537.796628 L524.369686,537.796628 Z M419.634229,379.258287 L419.634229,367.933721 L429.638342,366.238393 C434.355047,365.480251 435.110391,363.784923 435.110391,359.065421 L435.110391,262.630356 C435.110391,257.910854 434.355047,255.647619 429.638342,255.079713 L419.634229,253.946696 L419.634229,243.380271 L516.6372,243.380271 L515.506982,275.837688 L503.427071,275.837688 L502.294055,262.630356 C501.91918,257.910854 499.653148,257.15551 495.126678,257.15551 L451.341897,257.15551 L451.341897,301.505401 L495.50435,301.505401 L495.50435,315.283437 L451.341897,315.283437 L451.341897,365.480251 L495.311318,365.480251 C499.840585,365.480251 502.106617,364.727704 502.487087,360.008202 L503.617306,345.855291 L516.262326,345.855291 L517.392545,379.258287 L419.634229,379.258287 Z M445.307536,537.796628 L388.877735,537.796628 L388.877735,526.472061 L398.884646,524.776733 C403.598553,524.018591 404.356694,521.942794 404.356694,517.223291 L404.356694,421.168696 C404.356694,416.449194 403.598553,414.183162 398.884646,413.618053 L388.877735,412.485036 L388.877735,401.918611 L445.307536,401.918611 C488.334176,401.918611 504.753119,427.205854 504.753119,467.781822 C504.753119,508.545227 488.334176,537.796628 445.307536,537.796628 L445.307536,537.796628 Z M366.995136,413.050146 L356.99382,414.751069 C352.274318,415.503615 351.521771,417.204538 351.521771,421.921243 L351.521771,517.793996 C351.521771,522.5107 352.274318,524.208826 356.99382,524.96417 L366.995136,526.662296 L366.995136,537.796628 L319.814103,537.796628 L319.814103,526.662296 L329.818217,524.96417 C334.534921,524.208826 335.290265,522.5107 335.290265,517.793996 L335.290265,421.921243 C335.290265,417.204538 334.534921,415.503615 329.818217,414.751069 L319.814103,413.050146 L319.814103,401.918611 L366.995136,401.918611 L366.995136,413.050146 Z M296.602658,312.829968 C296.602658,273.196781 314.907164,241.491911 358.126836,241.491911 C370.013715,241.491911 382.093626,242.244457 400.398132,252.248571 L397.379553,283.01066 L383.791751,283.01066 L379.827593,262.252684 C370.956496,257.910854 365.106775,255.647619 352.464553,255.647619 C337.743735,255.647619 331.13867,260.176887 325.473589,265.836372 C318.871322,272.441437 314.907164,297.541243 314.907164,311.506717 C314.907164,344.91251 329.25031,366.42583 356.61335,366.42583 C372.467184,366.42583 391.339597,359.255656 395.868864,357.554733 L399.642787,369.822081 C395.303755,371.520206 374.733217,381.146648 353.217099,381.146648 C313.776945,381.146648 296.602658,356.234279 296.602658,312.829968 L296.602658,312.829968 Z M303.974257,413.050146 L293.972941,414.751069 C289.253439,415.503615 288.498095,417.204538 288.498095,421.921243 L288.498095,494.014644 C288.498095,527.41764 262.642945,539.684988 239.056626,539.684988 C208.859646,539.684988 193.573719,523.266045 193.573719,494.014644 L193.573719,421.921243 C193.573719,417.204538 192.818374,415.503615 188.098872,414.751069 L178.097557,413.050146 L178.097557,401.918611 L225.275791,401.918611 L225.275791,413.050146 L215.277273,414.751069 C210.554974,415.503615 209.802427,417.204538 209.802427,421.921243 L209.802427,490.996065 C209.802427,517.603761 227.166949,524.586498 244.903549,524.586498 C252.454192,524.586498 260.757383,522.5107 266.041994,517.603761 C270.381026,513.452166 273.024731,505.336413 273.024731,489.482579 L273.024731,421.921243 C273.024731,417.204538 272.269387,415.503615 267.549885,414.751069 L257.548569,413.050146 L257.548569,401.918611 L303.974257,401.918611 L303.974257,413.050146 Z M167.539524,486.654235 L160.179115,487.971891 C155.462411,488.91747 155.084739,490.42536 155.084739,495.144862 L155.084739,528.172984 C145.27086,532.512016 129.229589,539.684988 108.471613,539.684988 C68.4607551,539.684988 51.6641397,514.772619 51.6641397,471.368308 C51.6641397,431.735121 69.9714433,400.030251 113.18552,400.030251 C125.645901,400.030251 138.665796,400.782798 157.725646,410.786911 L154.707067,441.549 L141.119265,441.549 L137.157905,420.791024 C127.721698,416.449194 121.113836,414.183162 107.526034,414.183162 C92.8052166,414.183162 86.2001518,418.715227 80.540666,424.374713 C73.9328036,430.979777 69.9714433,455.892146 69.9714433,470.045057 C69.9714433,501.184818 81.8611194,525.341842 111.302755,525.341842 C121.681743,525.341842 129.607261,523.640919 139.233702,520.62234 L139.233702,495.525332 C139.233702,490.80583 138.288123,489.107704 133.758856,488.35236 L122.999399,486.654235 L122.999399,475.517105 L167.539524,475.517105 L167.539524,486.654235 Z M44.4939656,84.8447287 L156.214957,84.8447287 L155.084739,117.302146 L143.007626,117.302146 L141.871812,103.526907 C141.496937,98.8102024 139.233702,98.0548583 134.704435,98.0548583 L108.471613,98.0548583 L108.471613,200.720113 C108.471613,205.43402 109.22416,207.134943 113.943662,207.88749 L124.700322,209.588413 L124.700322,220.722745 L76.0086012,220.722745 L76.0086012,209.588413 L86.7680587,207.88749 C91.4847632,207.134943 92.2401073,205.43402 92.2401073,200.720113 L92.2401073,98.0548583 L65.8198482,98.0548583 C61.4780182,98.0548583 59.2147834,98.8102024 58.8371113,103.526907 L57.7040951,117.302146 L45.6241842,117.302146 L44.4939656,84.8447287 Z M167.903209,366.803502 C172.625508,365.857923 174.508273,364.727704 176.774306,358.119842 L217.350273,243.380271 L234.899435,243.380271 L275.287966,358.119842 C277.548403,364.727704 279.626998,365.857923 284.3465,366.803502 L291.706909,368.123955 L291.706909,379.258287 L243.202626,379.258287 L243.202626,368.501628 L253.584411,366.803502 C256.980662,366.238393 258.49135,364.727704 258.49135,362.274235 C258.49135,361.141219 258.301115,360.008202 257.736006,358.497514 L249.432816,334.530725 L199.420642,334.530725 L191.495123,357.932405 C190.930014,359.443093 190.736982,360.763547 190.736982,361.896563 C190.736982,364.727704 192.437905,366.238393 195.834156,366.803502 L206.025706,368.501628 L206.025706,379.258287 L162.249318,379.258287 C159.608411,380.24583 155.963176,381.146648 151.501051,381.146648 C141.306702,381.146648 134.704435,373.408567 129.417026,365.292814 L104.126986,325.097316 C101.673516,321.320595 98.4675,317.546672 92.6177794,317.546672 L85.8224798,317.546672 L85.8224798,359.255656 C85.8224798,363.97236 86.7680587,365.857923 91.4847632,366.42583 L103.749314,367.933721 L103.749314,379.258287 L54.1176093,379.258287 L54.1176093,368.123955 L64.1189251,366.42583 C68.8384271,365.670486 69.5937713,363.97236 69.5937713,359.255656 L69.5937713,263.382903 C69.5937713,258.666198 68.8384271,256.965275 64.1189251,256.212729 L54.1176093,254.511806 L54.1176093,243.380271 L103.749314,243.380271 C129.797496,243.380271 146.971783,251.305789 146.971783,277.348377 C146.971783,304.146308 124.700322,312.262061 112.810646,313.960186 C116.774804,314.902968 121.491508,319.997344 125.075196,325.662425 L145.83597,358.119842 C150.740111,365.664891 156.021925,368.121158 160.73863,368.123955 L166.512816,367.060879 C166.845727,366.962964 167.147864,366.870644 167.352087,366.803502 L167.343694,366.907012 L167.903209,366.803502 Z M168.471115,209.588413 L178.472431,207.88749 C183.191933,207.134943 183.94448,205.43402 183.94448,200.720113 L183.94448,104.84736 C183.94448,100.130656 183.191933,98.4325304 178.472431,97.6771862 L168.471115,95.9790607 L168.471115,84.8447287 L216.594929,84.8447287 L216.594929,95.9790607 L205.648034,97.6771862 C200.934128,98.4325304 200.175986,100.130656 200.175986,104.84736 L200.175986,142.779623 L263.966196,142.779623 L263.966196,104.84736 C263.966196,100.130656 263.210852,98.4325304 258.49135,97.6771862 L247.547253,95.9790607 L247.547253,84.8447287 L295.668269,84.8447287 L295.668269,95.9790607 L285.669751,97.6771862 C280.947451,98.4325304 280.194905,100.130656 280.194905,104.84736 L280.194905,200.720113 C280.194905,205.43402 280.947451,207.134943 285.669751,207.88749 L295.668269,209.588413 L295.668269,220.722745 L247.547253,220.722745 L247.547253,209.588413 L258.49135,207.88749 C263.210852,207.134943 263.966196,205.43402 263.966196,200.720113 L263.966196,156.370223 L200.175986,156.370223 L200.175986,200.720113 C200.175986,205.43402 200.934128,207.134943 205.648034,207.88749 L216.594929,209.588413 L216.594929,220.722745 L168.471115,220.722745 L168.471115,209.588413 Z M317.548071,209.400976 L327.549387,207.70285 C332.268889,206.947506 333.02703,205.249381 333.02703,200.527081 L333.02703,104.092016 C333.02703,99.3753117 332.268889,97.1120769 327.549387,96.54417 L317.548071,95.4111538 L317.548071,84.8447287 L414.551043,84.8447287 L413.418026,117.302146 L401.340913,117.302146 L400.210694,104.092016 C399.830225,99.3753117 397.56699,98.6199676 393.037723,98.6199676 L349.252941,98.6199676 L349.252941,142.969858 L393.412597,142.969858 L393.412597,156.745097 L349.252941,156.745097 L349.252941,206.947506 L393.227957,206.947506 C397.754427,206.947506 400.02046,206.192162 400.398132,201.47266 L401.531148,187.319749 L414.17337,187.319749 L415.309184,220.722745 L317.548071,220.722745 L317.548071,209.400976 Z M0.00139878543,612.668016 L674.215974,612.668016 L674.215974,0 L0.00139878543,0 L0.00139878543,612.668016 Z" id="Fill-13"></path>
                <path d="M696.649694,40.2539672 L696.649694,94.5044611 C696.683265,94.5492223 696.593743,635.048303 696.593743,635.048303 L49.9436336,635.048303 C192.728852,642.797574 308.316087,650.779044 400.677889,658.777299 C530.35369,668.213506 653.52514,678.961773 709.238763,688.767259 C707.935095,660.732801 708.981387,628.023603 711.720209,592.57838 C712.657395,306.339323 724.340051,143.061898 731.202492,71.3405745 C732.668419,55.9847081 733.916136,44.8000198 734.791775,37.5291332 L696.649694,40.2539672 Z" id="Fill-15"></path>
            </g>
        </g>
    </g>
</svg>